<svg xmlns="http://www.w3.org/2000/svg" xmlns:xlink="http://www.w3.org/1999/xlink" width="500" zoomAndPan="magnify" viewBox="0 0 375 374.999991" height="500" preserveAspectRatio="xMidYMid meet" version="1.0"><defs><g/><clipPath id="f2531c088b"><path d="M 18.75 36.703125 L 356.25 36.703125 L 356.25 337.453125 L 18.75 337.453125 Z M 18.75 36.703125 " clip-rule="nonzero"/></clipPath></defs><rect x="-37.5" width="450" fill="#ffffff" y="-37.499999" height="449.999989" fill-opacity="1"/><rect x="-37.5" width="450" fill="#ffffff" y="-37.499999" height="449.999989" fill-opacity="1"/><g clip-path="url(#f2531c088b)"><path fill="#030304" d="M 336.324219 206.128906 C 336.46875 205.664062 336.851562 205.320312 337.316406 205.238281 C 340.585938 204.707031 343.433594 203.414062 345.859375 201.367188 C 347.789062 199.738281 349.597656 197.316406 351.289062 194.097656 C 354.269531 188.421875 355.910156 182.316406 356.214844 175.789062 C 356.238281 175.332031 356.074219 175.246094 355.710938 175.527344 C 349.484375 180.484375 343.707031 186.011719 338.386719 192.113281 C 337.828125 192.75 337.589844 192.644531 337.664062 191.808594 L 338.972656 177.160156 C 339.011719 176.730469 339.28125 176.363281 339.683594 176.1875 C 343.835938 174.421875 346.839844 171.71875 348.703125 168.078125 C 350.144531 165.261719 351.089844 161.53125 351.539062 156.882812 C 351.925781 152.921875 351.648438 148.921875 350.714844 144.882812 C 350.574219 144.269531 350.308594 144.210938 349.921875 144.699219 C 345.300781 150.589844 341.089844 156.804688 337.292969 163.34375 C 337.164062 163.558594 337.082031 163.542969 337.042969 163.296875 L 334.726562 150.039062 C 334.601562 149.332031 334.800781 148.613281 335.261719 148.101562 C 340.742188 142.027344 343.121094 135.085938 342.402344 127.289062 C 342.007812 123.054688 340.960938 118.785156 339.265625 114.484375 C 339.144531 114.179688 339 114.167969 338.832031 114.445312 C 335.09375 120.679688 331.972656 127.097656 329.464844 133.703125 C 329.335938 134.035156 329.199219 134.039062 329.046875 133.71875 L 323.726562 122.191406 C 323.363281 121.40625 323.371094 120.621094 323.742188 119.839844 C 326.453125 114.125 327.472656 108.386719 326.800781 102.621094 C 326.140625 96.878906 324.113281 91.574219 320.726562 86.710938 C 320.375 86.203125 320.066406 86.230469 319.808594 86.792969 C 319.304688 87.902344 318.902344 89.214844 318.609375 90.734375 C 317.617188 95.863281 316.515625 101.207031 315.3125 106.753906 C 315.226562 107.140625 315.058594 107.179688 314.8125 106.871094 L 306.476562 96.375 C 305.941406 95.703125 305.78125 94.984375 305.988281 94.210938 C 308.324219 85.308594 307.378906 76.707031 303.15625 68.402344 C 301.988281 66.105469 300.484375 64.054688 298.648438 62.242188 C 298.394531 61.988281 298.222656 62.039062 298.140625 62.386719 C 296.554688 68.933594 295.734375 75.578125 295.671875 82.320312 C 295.671875 82.578125 295.578125 82.613281 295.398438 82.425781 L 285.742188 72.65625 C 285.097656 72.003906 284.839844 71.214844 284.972656 70.296875 C 285.296875 68.011719 284.972656 65.527344 284 62.835938 C 280.820312 54.023438 275.542969 46.988281 268.164062 41.71875 C 267.210938 41.039062 266.765625 41.285156 266.820312 42.453125 C 267.148438 49.144531 268.511719 55.523438 270.90625 61.589844 C 271.101562 62.082031 270.988281 62.160156 270.570312 61.832031 C 266.71875 58.78125 262.832031 55.832031 258.902344 52.996094 C 254.085938 49.511719 249.972656 46.898438 246.566406 45.144531 C 239.042969 41.28125 231.050781 38.640625 222.582031 37.226562 C 221.078125 36.980469 219.558594 36.890625 218.019531 36.960938 C 217.714844 36.980469 217.675781 37.089844 217.898438 37.296875 C 221.882812 41.0625 226.046875 44.566406 230.394531 47.808594 C 236.164062 52.121094 240.371094 54.914062 243.027344 56.183594 C 247.546875 58.351562 252.695312 59.644531 258.46875 60.0625 C 259.597656 60.148438 260.574219 60.523438 261.398438 61.179688 L 268.660156 67 C 270.105469 68.15625 269.910156 68.605469 268.066406 68.339844 C 260.082031 67.203125 253.324219 69.164062 247.789062 74.230469 C 247.761719 74.253906 247.742188 74.28125 247.730469 74.3125 C 247.667969 74.441406 247.722656 74.59375 247.851562 74.65625 C 258.355469 79.886719 269.347656 80.609375 280.832031 76.832031 C 281.339844 76.664062 281.890625 76.78125 282.257812 77.140625 L 291.558594 86.28125 C 292.339844 87.042969 292.199219 87.28125 291.140625 86.992188 C 290.175781 86.722656 289.246094 86.480469 288.347656 86.265625 C 287.390625 86.027344 286.441406 85.90625 285.5 85.90625 C 280.171875 85.90625 274.671875 86.613281 269.003906 88.03125 C 268.679688 88.113281 268.648438 88.253906 268.910156 88.460938 C 278.9375 95.933594 289.992188 99.535156 302.082031 99.261719 C 302.320312 99.257812 302.550781 99.355469 302.710938 99.535156 C 305.839844 103 308.554688 106.769531 310.867188 110.835938 C 310.988281 111.054688 310.929688 111.121094 310.691406 111.027344 C 302.980469 108.125 294.996094 106.398438 286.738281 105.851562 C 286.277344 105.820312 286.1875 105.988281 286.464844 106.351562 C 288.203125 108.628906 290.113281 110.820312 292.207031 112.925781 C 298.734375 119.523438 307.390625 123.304688 318.179688 124.265625 C 318.457031 124.289062 318.710938 124.453125 318.847656 124.699219 C 321.191406 128.945312 323.210938 133.226562 324.910156 137.527344 C 325.003906 137.753906 324.9375 137.804688 324.722656 137.671875 C 320.558594 135.113281 316.125 133.191406 311.414062 131.910156 C 308.558594 131.136719 305.746094 130.382812 302.972656 129.65625 C 302.289062 129.472656 302.125 129.683594 302.488281 130.292969 C 304.183594 133.148438 306.066406 135.859375 308.140625 138.421875 C 310.585938 141.445312 312.941406 143.722656 315.210938 145.253906 C 319.121094 147.894531 323.710938 149.535156 328.976562 150.195312 C 329.511719 150.261719 329.929688 150.644531 330.015625 151.136719 L 332.195312 164.027344 C 332.269531 164.476562 332.132812 164.550781 331.777344 164.246094 C 326.300781 159.523438 320.097656 156.117188 313.167969 154.023438 C 313.136719 154.011719 313.101562 154.007812 313.066406 154.015625 C 312.929688 154.035156 312.839844 154.15625 312.859375 154.289062 C 314.277344 164.019531 319.410156 170.964844 328.246094 175.117188 C 329.777344 175.835938 331.476562 176.289062 333.347656 176.476562 C 333.566406 176.496094 333.722656 176.6875 333.707031 176.902344 L 332.839844 190.953125 C 332.792969 191.84375 332.503906 191.929688 331.984375 191.210938 C 328.207031 185.976562 323.453125 181.410156 317.71875 177.519531 C 317.664062 177.484375 317.601562 177.460938 317.542969 177.457031 C 317.339844 177.441406 317.167969 177.59375 317.152344 177.792969 C 316.925781 180.582031 316.898438 183.484375 317.058594 186.507812 C 317.199219 189.203125 317.808594 191.59375 318.878906 193.671875 C 321.484375 198.71875 325.246094 202.363281 330.175781 204.601562 C 330.679688 204.832031 330.953125 205.390625 330.824219 205.933594 C 329.644531 210.714844 328.160156 215.359375 326.371094 219.867188 C 326.089844 220.585938 325.859375 220.570312 325.691406 219.820312 C 324.699219 215.53125 323.0625 211.304688 320.777344 207.144531 C 319.320312 204.484375 317.816406 202.429688 316.269531 200.992188 C 316.242188 200.964844 316.207031 200.949219 316.171875 200.933594 C 316.042969 200.894531 315.90625 200.972656 315.863281 201.101562 C 314.542969 205.109375 313.78125 209.226562 313.578125 213.453125 C 313.242188 220.480469 315.488281 226.507812 320.3125 231.53125 C 320.585938 231.820312 320.652344 232.238281 320.480469 232.566406 L 314.273438 244.074219 C 314.085938 244.421875 313.960938 244.398438 313.902344 244.003906 C 312.800781 237.335938 310.644531 231.199219 307.425781 225.597656 C 307.007812 224.863281 306.628906 224.886719 306.292969 225.660156 C 304.339844 230.238281 303.136719 235.222656 302.679688 240.605469 C 302.261719 245.585938 303.304688 250.425781 305.816406 255.136719 C 306.316406 256.070312 306.25 256.910156 305.617188 257.65625 L 296.726562 268.128906 C 296.53125 268.355469 296.4375 268.316406 296.4375 268.007812 C 296.515625 261.566406 295.65625 255.078125 293.867188 248.546875 C 293.851562 248.496094 293.828125 248.453125 293.789062 248.410156 C 293.664062 248.273438 293.460938 248.265625 293.328125 248.386719 C 292.042969 249.542969 291.042969 250.734375 290.328125 251.953125 C 288.011719 255.898438 286.234375 260.078125 285 264.484375 C 283.84375 268.589844 283.769531 272.707031 284.773438 276.839844 C 284.828125 277.070312 284.757812 277.308594 284.589844 277.472656 C 280.753906 281.035156 276.777344 284.226562 272.664062 287.050781 C 272.25 287.332031 272.128906 287.238281 272.296875 286.765625 C 273.304688 284.003906 273.859375 281.328125 273.960938 278.734375 C 274.101562 274.859375 273.941406 271 273.476562 267.164062 C 273.394531 266.496094 273.097656 266.375 272.582031 266.808594 C 265.542969 272.722656 261.089844 280.199219 259.21875 289.238281 C 259.011719 290.214844 258.886719 291.46875 258.828125 293 C 258.816406 293.355469 258.621094 293.675781 258.320312 293.835938 L 246.128906 300.550781 C 245.605469 300.839844 245.496094 300.726562 245.8125 300.210938 C 249.546875 294.089844 251.414062 287.453125 251.414062 280.292969 C 251.414062 280.261719 251.410156 280.234375 251.398438 280.203125 C 251.355469 280.046875 251.191406 279.957031 251.039062 280.003906 C 249.425781 280.460938 247.941406 281.195312 246.589844 282.210938 C 240.015625 287.140625 234.84375 293.441406 231.078125 301.113281 C 230.910156 301.464844 230.613281 301.738281 230.25 301.878906 C 217.507812 306.957031 204.515625 310.226562 191.285156 311.695312 C 188.558594 312 185.839844 311.964844 183.121094 311.597656 C 170.082031 309.816406 157.433594 306.59375 145.179688 301.9375 C 144.355469 301.625 143.742188 301.082031 143.328125 300.316406 C 140.371094 294.839844 136.730469 289.875 132.402344 285.414062 C 130.125 283.066406 127.429688 281.277344 124.316406 280.046875 C 124.203125 280 124.082031 279.984375 123.960938 279.996094 C 123.542969 280.035156 123.234375 280.40625 123.273438 280.820312 C 123.921875 287.953125 125.894531 294.417969 129.1875 300.222656 C 129.46875 300.71875 129.378906 300.796875 128.921875 300.460938 C 125.46875 297.898438 121.589844 295.558594 117.277344 293.4375 C 117.046875 293.320312 116.898438 293.089844 116.890625 292.835938 C 116.832031 291 116.539062 289.226562 116.007812 287.515625 C 114.136719 281.53125 111.21875 276.117188 107.257812 271.269531 C 105.761719 269.441406 104.078125 267.925781 102.210938 266.722656 C 102.132812 266.671875 102.046875 266.644531 101.953125 266.636719 C 101.648438 266.613281 101.382812 266.839844 101.359375 267.144531 C 101.066406 270.929688 101.035156 274.59375 101.261719 278.136719 C 101.445312 281.039062 102.101562 283.828125 103.234375 286.511719 C 103.558594 287.277344 103.398438 287.398438 102.753906 286.890625 L 91.167969 277.632812 C 91 277.496094 90.929688 277.261719 90.996094 277.03125 C 91.769531 274.257812 92.050781 272.035156 91.839844 270.367188 C 90.8125 262.347656 87.699219 255.140625 82.507812 248.757812 C 81.828125 247.925781 81.375 248.03125 81.132812 249.074219 C 79.710938 255.261719 79.089844 261.621094 79.265625 268.148438 C 79.273438 268.492188 79.160156 268.539062 78.941406 268.285156 L 68.914062 257.074219 C 68.613281 256.734375 68.574219 256.222656 68.8125 255.796875 C 72.046875 250.152344 73.121094 244.292969 72.027344 238.234375 C 71.582031 235.75 70.9375 233.40625 70.097656 231.203125 C 69.21875 228.902344 68.023438 226.765625 66.496094 224.789062 C 66.472656 224.761719 66.445312 224.742188 66.414062 224.722656 C 66.292969 224.664062 66.152344 224.710938 66.097656 224.828125 C 63.335938 230.496094 61.480469 236.917969 60.523438 244.085938 C 60.4375 244.734375 60.242188 244.777344 59.941406 244.207031 L 53.667969 232.574219 C 53.558594 232.371094 53.589844 232.117188 53.742188 231.925781 C 56.046875 229.042969 57.660156 226.847656 58.582031 225.34375 C 60.011719 223 60.851562 220.167969 61.09375 216.835938 C 61.480469 211.5625 60.757812 206.371094 58.933594 201.265625 C 58.71875 200.675781 58.421875 200.628906 58.042969 201.136719 C 53.769531 206.816406 50.679688 213 48.765625 219.691406 C 48.613281 220.226562 48.441406 220.230469 48.25 219.707031 C 46.496094 214.9375 45.0625 210.199219 43.960938 205.484375 C 43.847656 204.992188 44.078125 204.488281 44.53125 204.261719 C 49.839844 201.589844 53.722656 197.964844 56.167969 193.390625 C 57.128906 191.589844 57.683594 189.671875 57.832031 187.628906 C 58.058594 184.472656 58.132812 181.132812 58.046875 177.609375 C 58.035156 177.214844 57.871094 177.132812 57.554688 177.367188 C 51.886719 181.453125 46.898438 186.339844 42.589844 192.023438 C 42.421875 192.238281 42.328125 192.214844 42.316406 191.949219 L 41.402344 176.996094 C 41.386719 176.691406 41.601562 176.414062 41.914062 176.339844 C 53.769531 173.421875 60.640625 166.066406 62.507812 154.269531 C 62.515625 154.230469 62.511719 154.195312 62.5 154.164062 C 62.460938 154.039062 62.328125 153.96875 62.203125 154.007812 C 55.425781 156.117188 49.324219 159.289062 43.890625 163.511719 C 43.390625 163.902344 43.179688 163.78125 43.253906 163.152344 C 43.742188 158.9375 44.519531 154.773438 45.585938 150.660156 C 45.699219 150.195312 46.117188 149.871094 46.597656 149.863281 C 49.59375 149.800781 52.4375 149.0625 55.128906 147.652344 C 62.742188 143.648438 68.542969 137.820312 72.539062 130.164062 C 72.714844 129.820312 72.613281 129.683594 72.234375 129.761719 C 64.738281 131.191406 57.484375 133.808594 50.476562 137.609375 C 49.898438 137.925781 49.71875 137.769531 49.945312 137.152344 C 51.410156 133.085938 53.269531 128.941406 55.523438 124.71875 C 55.660156 124.460938 55.917969 124.289062 56.214844 124.257812 C 66.6875 123.285156 75.085938 119.613281 81.414062 113.234375 C 83.59375 111.035156 85.621094 108.691406 87.488281 106.207031 C 87.695312 105.929688 87.625 105.804688 87.285156 105.835938 C 81.933594 106.324219 76.640625 107.167969 71.398438 108.378906 C 69.128906 108.90625 66.957031 109.707031 64.886719 110.777344 C 64.007812 111.226562 63.8125 111.023438 64.292969 110.164062 C 66.375 106.449219 68.914062 102.90625 71.902344 99.53125 C 72.058594 99.351562 72.292969 99.25 72.539062 99.257812 C 84.386719 99.5625 94.9375 95.972656 104.1875 88.496094 C 104.777344 88.019531 104.703125 87.703125 103.960938 87.554688 C 102.402344 87.238281 100.742188 86.96875 98.980469 86.738281 C 98.90625 86.730469 97.449219 86.503906 94.609375 86.058594 C 90.640625 85.433594 86.695312 85.652344 82.769531 86.710938 C 82.527344 86.777344 82.488281 86.714844 82.648438 86.535156 C 85.914062 82.878906 89.507812 79.582031 93.429688 76.652344 C 93.628906 76.507812 93.875 76.46875 94.101562 76.546875 C 104.582031 80.113281 115.125 79.457031 125.71875 74.582031 C 125.757812 74.566406 125.796875 74.539062 125.828125 74.511719 C 126 74.355469 126.011719 74.089844 125.859375 73.917969 C 121.210938 68.945312 115.566406 66.925781 108.921875 67.855469 C 107.710938 68.027344 106.507812 68.050781 105.3125 67.929688 C 105.0625 67.90625 105.039062 67.8125 105.246094 67.648438 C 108.492188 65.140625 111.839844 62.765625 115.273438 60.535156 C 116.261719 59.890625 117.339844 59.511719 118.515625 59.398438 C 120.3125 59.214844 122.117188 59.070312 123.921875 58.964844 C 126.40625 58.816406 129.367188 57.785156 132.796875 55.871094 C 137.976562 52.988281 142.824219 49.617188 147.332031 45.761719 C 150.535156 43.019531 153.882812 40.179688 157.378906 37.238281 C 157.753906 36.929688 157.699219 36.773438 157.210938 36.769531 C 154.859375 36.753906 152.863281 36.902344 151.230469 37.214844 C 138.609375 39.660156 127.152344 44.691406 116.851562 52.3125 C 112.261719 55.710938 107.710938 59.164062 103.195312 62.664062 C 103 62.824219 102.953125 62.785156 103.050781 62.558594 C 105.773438 56.183594 107.4375 49.25 108.042969 41.761719 C 108.089844 41.246094 107.894531 41.128906 107.460938 41.417969 C 99.515625 46.683594 93.800781 53.921875 90.324219 63.136719 C 89.523438 65.273438 89.316406 67.992188 89.710938 71.292969 C 89.742188 71.539062 89.660156 71.78125 89.492188 71.945312 L 79.167969 82.152344 C 78.863281 82.449219 78.71875 82.386719 78.726562 81.957031 C 78.859375 75.128906 78.207031 68.929688 76.769531 63.355469 C 76.53125 62.441406 76.125 62.359375 75.554688 63.113281 C 68.835938 71.964844 66.574219 82.246094 68.769531 93.957031 C 68.914062 94.765625 68.71875 95.480469 68.183594 96.105469 C 65.355469 99.359375 62.566406 103.0625 59.816406 107.21875 C 59.484375 107.71875 59.265625 107.671875 59.160156 107.074219 L 55.652344 87.445312 C 55.453125 86.335938 55.027344 86.246094 54.367188 87.171875 C 47.472656 96.894531 46.3125 107.664062 50.882812 119.488281 C 51.320312 120.617188 51.28125 121.722656 50.777344 122.804688 L 45.5625 133.917969 C 45.359375 134.347656 45.179688 134.339844 45.023438 133.886719 C 42.71875 127.324219 39.597656 121.191406 35.648438 115.488281 C 35.5 115.285156 35.382812 115.304688 35.289062 115.539062 C 33.914062 119.125 33.089844 123.167969 32.820312 127.660156 C 32.351562 135.570312 34.574219 142.234375 39.492188 147.664062 C 40.195312 148.4375 40.457031 149.363281 40.273438 150.441406 L 38.285156 162.070312 C 38.140625 162.949219 37.832031 163.011719 37.367188 162.261719 C 33.566406 156.074219 29.332031 150.15625 24.667969 144.511719 C 24.5 144.316406 24.390625 144.34375 24.34375 144.589844 C 22.617188 152.933594 23.617188 160.910156 27.339844 168.523438 C 29.046875 172.003906 31.855469 174.492188 35.769531 175.984375 C 36.042969 176.085938 36.230469 176.347656 36.25 176.652344 L 37.015625 192.152344 C 37.0625 193.078125 36.8125 193.171875 36.269531 192.425781 C 31.53125 185.867188 25.886719 180.113281 19.335938 175.15625 C 18.945312 174.859375 18.757812 174.953125 18.773438 175.445312 C 18.945312 181.882812 20.386719 187.855469 23.101562 193.367188 C 24.875 196.972656 27.203125 199.90625 30.09375 202.164062 C 31.160156 202.988281 32.328125 203.632812 33.601562 204.09375 C 34.871094 204.550781 36.164062 204.894531 37.488281 205.128906 C 37.976562 205.21875 38.378906 205.566406 38.523438 206.03125 L 42.695312 219.792969 C 42.890625 220.417969 42.714844 220.542969 42.171875 220.164062 C 37.449219 216.847656 32.703125 213.707031 27.9375 210.734375 C 25.664062 209.316406 23.761719 208.316406 22.226562 207.738281 C 21.984375 207.640625 21.882812 207.71875 21.929688 207.980469 C 23.796875 217.9375 28.808594 225.613281 36.960938 231 C 38.808594 232.222656 40.582031 233.109375 42.289062 233.660156 C 44.222656 234.28125 46.207031 234.625 48.234375 234.683594 C 48.5625 234.695312 48.855469 234.878906 49.015625 235.160156 L 55.605469 247.039062 C 55.980469 247.714844 55.816406 247.886719 55.117188 247.554688 C 47.925781 244.167969 40.339844 241.179688 32.359375 238.585938 C 32.050781 238.484375 31.960938 238.582031 32.09375 238.878906 C 34.230469 243.742188 37.113281 247.929688 40.742188 251.445312 C 46.742188 257.25 54.257812 259.800781 63.289062 259.101562 C 63.625 259.078125 63.945312 259.207031 64.15625 259.449219 L 74.914062 271.707031 C 75.070312 271.894531 75.128906 272.101562 75.050781 272.210938 C 74.976562 272.3125 74.824219 272.316406 74.597656 272.226562 C 70.078125 270.351562 65.390625 269.082031 60.542969 268.429688 C 57.078125 267.960938 53.609375 267.5 50.144531 267.050781 C 49.890625 267.011719 49.835938 267.097656 49.976562 267.308594 C 52.273438 270.597656 55.210938 273.59375 58.78125 276.296875 C 63.972656 280.222656 69.675781 282.539062 75.890625 283.242188 C 79.585938 283.65625 83.113281 283.195312 86.46875 281.855469 C 86.839844 281.703125 87.261719 281.746094 87.59375 281.96875 C 91.875 284.816406 95.96875 287.898438 99.875 291.207031 C 100.855469 292.035156 100.730469 292.285156 99.488281 291.957031 C 97.484375 291.425781 95.449219 291.246094 93.382812 291.417969 C 88.28125 291.847656 82.902344 292.609375 77.246094 293.703125 C 76.898438 293.769531 76.855469 293.917969 77.128906 294.144531 C 80.351562 296.792969 83.777344 298.921875 87.402344 300.535156 C 91.410156 302.320312 95.269531 303.25 98.980469 303.3125 C 104.523438 303.414062 109.695312 301.804688 114.496094 298.488281 C 114.691406 298.351562 114.945312 298.328125 115.15625 298.425781 C 119.550781 300.449219 123.765625 302.6875 127.796875 305.140625 C 128.816406 305.757812 128.734375 306.121094 127.546875 306.234375 C 120.472656 306.894531 113.757812 308.769531 107.40625 311.859375 C 106.839844 312.136719 106.839844 312.414062 107.40625 312.6875 C 113.34375 315.535156 119.609375 317.011719 126.207031 317.113281 C 132.832031 317.207031 138.417969 315.222656 142.96875 311.152344 C 143.453125 310.722656 144.125 310.574219 144.753906 310.757812 C 155.792969 314.039062 166.453125 316.632812 176.738281 318.539062 C 178.109375 318.796875 178.117188 319.074219 176.753906 319.371094 C 165.871094 321.765625 156.871094 327.4375 149.75 336.382812 C 149.179688 337.101562 149.351562 337.402344 150.257812 337.285156 C 157.121094 336.4375 163.375 334.6875 169.027344 332.039062 C 175.175781 329.148438 181.046875 325.6875 186.640625 321.652344 C 186.832031 321.515625 187.085938 321.515625 187.277344 321.652344 C 196.722656 328.410156 207.058594 333.289062 218.289062 336.289062 C 219.773438 336.683594 221.398438 336.914062 223.164062 336.988281 C 223.722656 337.007812 223.832031 336.792969 223.496094 336.351562 C 219.234375 330.664062 213.84375 326.125 207.320312 322.738281 C 204.546875 321.300781 201.609375 320.269531 198.511719 319.640625 C 196.769531 319.292969 196.773438 318.976562 198.535156 318.695312 C 209.53125 316.929688 220.398438 314.160156 231.144531 310.390625 C 231.359375 310.308594 231.605469 310.367188 231.773438 310.53125 C 236.355469 315.058594 241.785156 317.292969 248.058594 317.238281 C 255.285156 317.175781 261.933594 315.449219 268.003906 312.050781 C 268.671875 311.679688 268.652344 311.335938 267.949219 311.027344 C 261.136719 307.996094 254.097656 306.339844 246.828125 306.058594 C 246.027344 306.019531 245.992188 305.832031 246.714844 305.480469 L 260.925781 298.585938 C 261.277344 298.417969 261.6875 298.441406 262.003906 298.65625 C 266.054688 301.378906 270.371094 302.882812 274.964844 303.164062 C 278.847656 303.40625 282.941406 302.597656 287.242188 300.742188 C 291.027344 299.109375 294.664062 296.914062 298.160156 294.144531 C 298.488281 293.882812 298.449219 293.699219 298.039062 293.59375 C 290.324219 291.574219 282.839844 290.902344 275.578125 291.582031 C 275.3125 291.605469 275.285156 291.542969 275.496094 291.382812 L 288.175781 281.964844 C 288.355469 281.828125 288.609375 281.785156 288.859375 281.847656 C 298.824219 284.417969 307.953125 282.628906 316.242188 276.480469 C 319.769531 273.863281 322.660156 270.855469 324.910156 267.453125 C 325.050781 267.238281 324.992188 267.148438 324.738281 267.171875 C 321.050781 267.5625 317.378906 268.007812 313.714844 268.511719 C 309.402344 269.105469 305.226562 270.226562 301.195312 271.875 C 300.410156 272.199219 300.273438 272.023438 300.785156 271.34375 C 303.730469 267.441406 307.175781 263.453125 311.125 259.375 C 311.402344 259.085938 311.792969 258.933594 312.195312 258.957031 C 319.285156 259.394531 325.472656 257.414062 330.757812 253.015625 C 335.296875 249.234375 338.808594 244.65625 341.300781 239.277344 C 341.527344 238.785156 341.394531 238.632812 340.890625 238.820312 L 319.550781 246.859375 C 319.074219 247.042969 318.960938 246.921875 319.214844 246.496094 L 326.25 234.75 C 326.421875 234.472656 326.742188 234.304688 327.101562 234.304688 C 329.675781 234.316406 332.082031 233.765625 334.320312 232.652344 C 344.214844 227.703125 350.351562 219.617188 352.730469 208.398438 C 352.863281 207.78125 352.65625 207.632812 352.109375 207.945312 C 345.539062 211.742188 339.195312 215.742188 333.074219 219.945312 C 332.25 220.503906 331.984375 220.304688 332.277344 219.34375 Z M 336.324219 206.128906 " fill-opacity="1" fill-rule="nonzero"/></g><path fill="#030304" d="M 191.855469 94.960938 C 192.433594 95.203125 192.984375 95.496094 193.507812 95.84375 C 194.027344 96.195312 194.511719 96.589844 194.957031 97.035156 C 195.398438 97.476562 195.796875 97.960938 196.144531 98.480469 C 196.492188 99.003906 196.789062 99.554688 197.027344 100.132812 C 197.269531 100.714844 197.449219 101.3125 197.570312 101.925781 C 197.695312 102.542969 197.753906 103.164062 197.753906 103.792969 C 197.753906 104.421875 197.695312 105.042969 197.570312 105.65625 C 197.449219 106.273438 197.269531 106.871094 197.027344 107.449219 C 196.789062 108.03125 196.492188 108.582031 196.144531 109.101562 C 195.796875 109.625 195.398438 110.105469 194.957031 110.550781 C 194.511719 110.996094 194.027344 111.390625 193.507812 111.738281 C 192.984375 112.089844 192.433594 112.382812 191.855469 112.625 C 191.273438 112.863281 190.675781 113.042969 190.0625 113.167969 C 189.445312 113.289062 188.824219 113.351562 188.195312 113.351562 C 187.566406 113.351562 186.945312 113.289062 186.332031 113.167969 C 185.714844 113.042969 185.117188 112.863281 184.539062 112.625 C 183.957031 112.382812 183.40625 112.089844 182.882812 111.738281 C 182.363281 111.390625 181.878906 110.996094 181.4375 110.550781 C 180.992188 110.105469 180.59375 109.625 180.246094 109.101562 C 179.898438 108.582031 179.605469 108.03125 179.363281 107.449219 C 179.125 106.871094 178.941406 106.273438 178.820312 105.65625 C 178.695312 105.042969 178.636719 104.421875 178.636719 103.792969 C 178.636719 103.164062 178.695312 102.542969 178.820312 101.925781 C 178.941406 101.3125 179.125 100.714844 179.363281 100.132812 C 179.605469 99.554688 179.898438 99.003906 180.246094 98.480469 C 180.59375 97.960938 180.992188 97.476562 181.4375 97.035156 C 181.878906 96.589844 182.363281 96.195312 182.882812 95.84375 C 183.40625 95.496094 183.957031 95.203125 184.539062 94.960938 C 185.117188 94.722656 185.714844 94.539062 186.332031 94.417969 C 186.945312 94.296875 187.566406 94.234375 188.195312 94.234375 C 188.824219 94.234375 189.445312 94.296875 190.0625 94.417969 C 190.675781 94.539062 191.273438 94.722656 191.855469 94.960938 Z M 191.855469 94.960938 " fill-opacity="1" fill-rule="nonzero"/><path fill="#030304" d="M 288.761719 214.519531 C 288.535156 214.40625 288.375 214.207031 288.3125 213.964844 C 286.652344 207.554688 284.800781 201.246094 282.765625 195.042969 C 277.273438 178.351562 271.660156 161.699219 265.925781 145.085938 C 265.457031 143.714844 265.046875 142.613281 264.699219 141.785156 C 266.464844 140.503906 267.617188 138.429688 267.617188 136.082031 C 267.617188 133.5625 266.292969 131.359375 264.304688 130.113281 C 264.644531 130.03125 264.960938 129.941406 265.261719 129.847656 C 268.566406 129.257812 271.082031 126.378906 271.082031 122.902344 C 271.082031 120.390625 269.765625 118.191406 267.785156 116.9375 C 266.84375 116.265625 265.808594 115.902344 264.679688 115.851562 C 265.542969 116.855469 266.109375 118.117188 266.246094 119.492188 C 266.664062 123.699219 263.160156 127.203125 258.953125 126.789062 C 258.636719 126.757812 258.332031 126.695312 258.027344 126.625 C 258.042969 126.648438 258.054688 126.667969 258.070312 126.691406 C 237.910156 123.191406 217.808594 119.886719 197.757812 116.78125 C 191.289062 115.78125 184.960938 115.742188 178.765625 116.667969 C 159.996094 119.464844 140.023438 122.84375 118.855469 126.808594 C 118.863281 126.792969 118.871094 126.777344 118.882812 126.761719 C 118.382812 126.828125 117.863281 126.835938 117.335938 126.785156 C 114.222656 126.476562 111.703125 123.960938 111.394531 120.847656 C 111.203125 118.933594 111.832031 117.164062 112.96875 115.839844 C 112.464844 115.839844 111.980469 115.898438 111.507812 115.996094 C 111.277344 116.039062 111.042969 116.085938 110.808594 116.152344 C 109.367188 116.542969 108.230469 117.355469 107.398438 118.582031 C 106.472656 119.777344 105.914062 121.273438 105.914062 122.898438 C 105.914062 122.96875 105.925781 123.039062 105.925781 123.105469 C 105.851562 124.675781 106.292969 126.054688 107.253906 127.246094 C 108.230469 128.457031 109.488281 129.367188 111.015625 129.980469 C 108.914062 131.203125 107.496094 133.476562 107.496094 136.082031 C 107.496094 138.703125 108.925781 140.984375 111.046875 142.199219 C 109.226562 148.140625 107.25 154.050781 105.109375 159.933594 C 100.78125 171.828125 96.59375 183.765625 92.542969 195.757812 C 89.828125 203.792969 87.957031 210.058594 86.933594 214.546875 C 86.882812 214.761719 86.695312 214.921875 86.46875 214.941406 C 84.742188 215.082031 83.742188 215.976562 83.480469 217.625 C 83.019531 220.5 84.023438 222.472656 86.492188 223.539062 C 86.949219 223.738281 87.617188 223.851562 88.496094 223.882812 C 89.191406 223.910156 89.875 223.996094 90.554688 224.140625 C 90.792969 224.191406 91.015625 224.3125 91.191406 224.496094 C 92.371094 225.730469 93.535156 226.980469 94.683594 228.25 C 97.578125 231.441406 100.960938 233.664062 104.828125 234.914062 C 108.289062 236.03125 112.1875 236.472656 116.519531 236.242188 C 124.929688 235.78125 131.730469 231.941406 136.921875 224.726562 C 137.070312 224.527344 137.292969 224.402344 137.523438 224.394531 C 138.128906 224.367188 138.734375 224.367188 139.335938 224.394531 C 140.226562 224.429688 140.945312 224.367188 141.484375 224.210938 C 144.996094 223.203125 146.335938 220.835938 145.503906 217.113281 C 145.371094 216.503906 145.160156 216.035156 144.867188 215.707031 C 144.460938 215.25 143.980469 215 143.421875 214.949219 C 142.984375 214.914062 142.617188 214.601562 142.503906 214.175781 C 140.777344 207.457031 138.925781 201.035156 136.945312 194.910156 C 131.308594 177.4375 125.355469 160.070312 119.089844 142.8125 C 118.984375 142.523438 118.828125 142.199219 118.625 141.847656 C 120.433594 140.570312 121.617188 138.464844 121.617188 136.082031 C 121.617188 133.582031 120.316406 131.390625 118.351562 130.136719 C 123.09375 129.515625 129.558594 128.566406 137.765625 127.296875 C 152.4375 125.027344 166.925781 122.730469 181.226562 120.402344 C 181.25 120.398438 181.269531 120.394531 181.289062 120.394531 C 181.65625 120.375 181.96875 120.652344 181.988281 121.015625 C 183.296875 149.351562 183.882812 177.695312 183.75 206.046875 C 183.722656 211.636719 183.625 216.699219 183.453125 221.21875 C 183.074219 231.082031 182.523438 239.121094 181.800781 245.328125 C 181.089844 251.425781 180.140625 256.992188 178.949219 262.027344 C 177.972656 266.167969 176.585938 270.253906 174.78125 274.300781 C 172.992188 278.324219 171.058594 281.597656 168.984375 284.121094 C 166.535156 287.089844 163.640625 289.632812 160.308594 291.75 C 156.839844 293.953125 153.324219 296.078125 149.761719 298.136719 C 148.484375 298.875 148.570312 299.371094 150.027344 299.621094 C 162.402344 301.742188 174.441406 301.550781 186.144531 299.046875 C 187.265625 298.808594 188.394531 298.792969 189.53125 299 C 201.414062 301.191406 212.949219 301.515625 224.132812 299.976562 C 225.972656 299.722656 226.152344 299.03125 224.683594 297.902344 C 223.433594 296.949219 221.90625 296 220.105469 295.066406 C 214.292969 292.039062 209.542969 287.988281 205.855469 282.910156 C 203.410156 279.550781 201.230469 275.011719 199.316406 269.292969 C 197.132812 262.765625 195.660156 256.292969 194.902344 249.875 C 192.417969 228.804688 191.363281 206.726562 191.742188 183.644531 C 192.089844 162.703125 192.699219 141.769531 193.558594 120.839844 C 193.558594 120.824219 193.5625 120.808594 193.5625 120.796875 C 193.589844 120.609375 193.761719 120.480469 193.945312 120.511719 L 256.695312 130.164062 C 254.773438 131.425781 253.5 133.597656 253.5 136.066406 C 253.5 138.589844 254.824219 140.796875 256.816406 142.046875 C 256.785156 142.105469 256.753906 142.167969 256.734375 142.226562 C 252.625 154.117188 248.460938 165.996094 244.253906 177.859375 C 240.472656 188.5 236.960938 199.230469 233.714844 210.050781 C 233.34375 211.285156 233.042969 212.671875 232.800781 214.210938 C 232.761719 214.449219 232.601562 214.652344 232.375 214.734375 C 230.027344 215.617188 228.917969 217.074219 229.058594 219.101562 C 229.164062 220.695312 229.800781 221.996094 230.976562 223 C 232.203125 224.066406 233.769531 224.421875 235.675781 224.070312 C 236.414062 223.933594 237.171875 224.195312 237.671875 224.761719 C 239.054688 226.332031 240.453125 227.800781 241.871094 229.167969 C 243.535156 230.773438 245.136719 232.003906 246.683594 232.847656 C 250.511719 234.941406 254.886719 236.0625 259.8125 236.210938 C 269.96875 236.511719 277.804688 232.757812 283.316406 224.953125 C 283.453125 224.757812 283.671875 224.640625 283.90625 224.640625 C 285.839844 224.660156 287.570312 224.214844 289.089844 223.308594 C 290.742188 222.320312 291.675781 221.003906 291.902344 219.351562 C 292.171875 217.320312 291.128906 215.703125 288.761719 214.519531 Z M 144.601562 218.625 C 144.605469 218.5625 144.609375 218.503906 144.613281 218.445312 C 144.609375 218.507812 144.605469 218.566406 144.601562 218.625 C 144.597656 218.660156 144.589844 218.691406 144.582031 218.730469 C 144.589844 218.695312 144.597656 218.660156 144.601562 218.625 Z M 144.457031 217.710938 C 144.414062 217.660156 144.367188 217.628906 144.3125 217.625 C 144.363281 217.625 144.414062 217.660156 144.457031 217.710938 Z M 144.089844 219.535156 C 143.996094 219.527344 143.921875 219.445312 143.867188 219.3125 C 143.925781 219.445312 144 219.527344 144.089844 219.535156 Z M 112.84375 218.144531 C 112.84375 218.148438 112.84375 218.152344 112.84375 218.152344 C 112.84375 218.359375 112.679688 218.523438 112.480469 218.523438 L 93.691406 218.5625 C 93.195312 218.570312 92.769531 218.199219 92.6875 217.707031 C 92.464844 216.261719 91.902344 215.292969 90.996094 214.796875 C 90.929688 214.761719 90.683594 214.722656 90.261719 214.675781 L 88.78125 214.527344 C 88.765625 214.523438 88.746094 214.519531 88.730469 214.515625 C 88.554688 214.464844 88.457031 214.246094 88.515625 214.035156 C 91.773438 202.003906 95.558594 190.144531 99.863281 178.453125 C 103.921875 167.441406 107.832031 156.382812 111.59375 145.269531 C 111.875 144.429688 112.261719 143.640625 112.757812 142.898438 C 112.972656 142.953125 113.191406 143 113.414062 143.035156 C 113.414062 143.054688 113.414062 143.074219 113.414062 143.097656 C 112.773438 168.042969 112.582031 193.0625 112.84375 218.144531 Z M 141.027344 213.890625 C 141.027344 213.894531 141.03125 213.894531 141.03125 213.898438 C 141.078125 214.097656 140.960938 214.300781 140.761719 214.351562 C 140.085938 214.519531 139.410156 214.652344 138.734375 214.753906 C 137.128906 215 136.296875 215.957031 136.242188 217.632812 C 136.226562 218.160156 135.796875 218.574219 135.269531 218.574219 L 114.460938 218.527344 C 114.449219 218.527344 114.441406 218.527344 114.425781 218.527344 C 114.234375 218.511719 114.09375 218.34375 114.109375 218.152344 C 114.148438 217.695312 114.207031 217.242188 114.28125 216.792969 C 114.367188 216.28125 114.410156 215.824219 114.410156 215.417969 C 114.515625 194.140625 114.714844 172.863281 115.011719 151.585938 C 115.054688 148.757812 115.15625 145.925781 115.316406 143.097656 C 115.960938 143.03125 116.574219 142.871094 117.152344 142.644531 C 117.285156 142.808594 117.398438 142.992188 117.472656 143.195312 C 126.425781 166.601562 134.277344 190.167969 141.027344 213.890625 Z M 260.546875 149.308594 C 260.347656 172.285156 260.308594 195.269531 260.417969 218.246094 C 260.417969 218.453125 260.246094 218.617188 260.039062 218.617188 L 239.34375 218.570312 C 238.933594 218.570312 238.59375 218.25 238.585938 217.84375 C 238.546875 216.621094 237.992188 215.617188 236.914062 214.84375 C 236.800781 214.757812 236.566406 214.695312 236.222656 214.652344 L 234.769531 214.464844 C 234.769531 214.464844 234.765625 214.464844 234.761719 214.464844 C 234.566406 214.429688 234.441406 214.210938 234.476562 213.972656 C 235.035156 210.613281 235.953125 206.957031 237.214844 203.011719 C 243.953125 181.996094 250.953125 162.113281 258.214844 143.363281 C 258.292969 143.15625 258.378906 142.980469 258.460938 142.828125 C 259.015625 142.996094 259.605469 143.097656 260.210938 143.125 C 260.460938 143.828125 260.574219 145.886719 260.546875 149.308594 Z M 284.433594 218.144531 C 284.445312 217.976562 284.480469 217.824219 284.535156 217.6875 C 284.480469 217.824219 284.445312 217.976562 284.433594 218.144531 C 284.410156 218.511719 284.511719 218.847656 284.6875 219.050781 C 284.511719 218.847656 284.40625 218.511719 284.433594 218.144531 Z M 285.066406 219.261719 C 285.085938 219.261719 285.101562 219.257812 285.117188 219.257812 C 285.101562 219.257812 285.085938 219.261719 285.066406 219.261719 Z M 285.3125 219.210938 C 285.550781 219.101562 285.742188 218.816406 285.8125 218.453125 C 285.742188 218.816406 285.550781 219.101562 285.3125 219.210938 Z M 285.207031 217.125 C 285.394531 217.136719 285.550781 217.253906 285.664062 217.433594 C 285.550781 217.253906 285.394531 217.136719 285.207031 217.125 Z M 286.378906 214.359375 C 283.640625 214.554688 282.171875 215.746094 281.984375 217.925781 C 281.945312 218.324219 281.617188 218.625 281.214844 218.625 L 262.410156 218.617188 C 262.203125 218.617188 262.039062 218.445312 262.039062 218.238281 L 262.273438 142.917969 C 262.613281 142.832031 262.949219 142.726562 263.265625 142.597656 C 263.3125 142.675781 263.351562 142.761719 263.386719 142.863281 C 272.03125 166.257812 279.867188 189.84375 286.886719 213.625 C 286.898438 213.664062 286.90625 213.707031 286.910156 213.75 C 286.933594 214.058594 286.691406 214.332031 286.378906 214.359375 Z M 286.378906 214.359375 " fill-opacity="1" fill-rule="nonzero"/><g fill="#000000" fill-opacity="1"><g transform="translate(185.26757, 275.947071)"><g><path d="M 1.578125 0 L 1.578125 -11.421875 L 2.90625 -11.421875 L 2.90625 0 Z M 1.578125 0 "/></g></g></g></svg>